PathFileType	4	(X/Y/Z)	C:/Users/beibeiliu/ov580/test_trc/User1\sequence.8_training_dense_left.trc
DataRate	CameraRate	NumFrames	NumMarkers	Units	OrigDataRate	OrigDataStartFrame	OrigNumFrames
120	120	16	19	mm	120	253	289
Frame#	Time	ThumbCMC			ThumbMCP			ThumbIP			ThumbTip			IndexMCP			IndexPIP			IndexTip			MiddleMCP			MiddlePIP			MiddleTip			RingMCP			RingPIP			RingTip			PinkyMCP			PinkyPIP			PinkyTip			BackHand1			BackHand2			BackHand3	
		X0	Y0	Z0	X1	Y1	Z1	X2	Y2	Z2	X3	Y3	Z3	X4	Y4	Z4	X5	Y5	Z5	X6	Y6	Z6	X7	Y7	Z7	X8	Y8	Z8	X9	Y9	Z9	X10	Y10	Z10	X11	Y11	Z11	X12	Y12	Z12	X13	Y13	Z13	X14	Y14	Z14	X15	Y15	Z15	X16	Y16	Z16	X17	Y17	Z17	X18	Y18	Z18	
252	2.1	-162.531	94.2894	48.4697	-132.252	85.6852	33.5235	-111.27	84.4438	23.9871	-90.3538	79.3569	17.2427	-126.15	128.319	-17.6921	-136.358	98.7958	-34.8112	-153.464	87.5388	-5.86911	-148.246	130.831	-36.7674	-150.438	98.1257	-40.5302	-168.076	89.8883	-2.63933	-169.716	127.884	-41.5146	-171.8	95.9911	-40.9498	-187.413	91.1413	-10.6593	-195.277	126.599	-43.9968	-188.672	98.6659	-33.6267	-193.619	101.589	-3.2509	-196.795	145.309	13.4481	-216.786	131.448	40.6675	-179.224	131.535	43.5818	
253	2.10833	-159.615	91.7457	52.2015	-135.17	85.9972	34.1172	-108.693	86.1012	26.4652	-87.9712	80.8354	21.3562	-127.757	128.955	-21.267	-131.309	101.183	-34.7555	-149.351	85.7524	-7.22592	-146.566	130.673	-35.2018	-148.538	99.0808	-40.7815	-167.544	90.1927	-5.60978	-169.901	126.471	-42.8246	-174.278	95.2112	-40.0865	-186.85	92.7281	-6.65062	-193.406	127.659	-42.5169	-188.845	98.6531	-33.548	-194.781	97.3269	-3.48731	-195.92	148.586	12.1	-216.314	133.652	38.648	-175.653	129.63	43.3187	
254	2.11667	-158.308	95.3854	49.2421	-131.193	85.1148	37.2617	-109.281	86.0131	28.362	-85.8202	83.6387	22.129	-124.966	126.9	-16.6263	-130.986	98.7312	-32.9972	-150.195	86.8564	-2.78721	-148.886	133.911	-31.8781	-150.3	98.2581	-39.9052	-168.118	90.1653	-0.599759	-169.768	129.34	-39.6798	-171.847	93.3595	-36.7443	-186.603	92.1865	-6.18426	-194.754	128.633	-40.6593	-187.276	100.507	-34.8435	-192.58	99.384	-1.80401	-193.43	147.213	15.2023	-213.745	130.278	40.8479	-176.238	127.903	46.3019	
255	2.125	-159.238	94.2351	49.7755	-133.763	85.5934	38.545	-108.341	86.9203	30.9916	-85.9295	86.1718	23.9844	-125.858	127.435	-15.9079	-135.363	97.6812	-32.5443	-153.125	87.5239	-4.89151	-144.926	130.031	-30.5684	-152.763	99.3941	-39.4343	-169.863	90.129	-3.18731	-168.013	128.848	-36.7515	-174.877	93.2543	-36.7018	-184.606	90.0821	-3.51258	-191.725	127.53	-39.9212	-190.866	99.1022	-36.7229	-195.219	97.2603	-1.04761	-193.697	145.187	16.9062	-213.52	129.402	43.8472	-178.966	128.047	47.4365	
256	2.13333	-159.907	93.578	55.2835	-132.695	88.496	41.9661	-110.312	94.8505	31.3864	-84.6751	92.5057	30.0617	-127.294	128.156	-13.1543	-132.466	96.4516	-29.1107	-152.013	89.0855	-0.037173	-152.472	132.831	-31.1979	-153.108	98.1482	-38.8423	-168.591	88.3242	-3.36594	-169.545	125.027	-37.8861	-173.607	92.9721	-36.8911	-184.516	89.3922	-5.14648	-195.295	126.973	-38.5112	-186.103	98.7621	-33.9813	-192.176	95.4041	-2.73113	-197.76	144.185	15.7588	-216.521	129.478	45.0035	-182.085	129.564	47.5357	
257	2.14167	-160.491	98.7016	58.0484	-132.591	98.6927	45.466	-113.326	104.665	35.498	-89.3296	106.445	32.1237	-128.964	130.634	-17.5175	-137.082	100.569	-28.1833	-152.461	92.859	-0.217954	-150.599	132.177	-31.5057	-154.51	95.1735	-34.5057	-166.373	89.3803	0.65404	-175.069	127.095	-37.1425	-172.681	91.7193	-36.7574	-180.701	87.5685	-4.10672	-198.248	121.412	-38.5437	-188.197	94.0328	-31.8456	-194.626	91.6605	-0.0923562	-202.648	142.423	12.8023	-222.655	127.756	43.4514	-183.912	133.381	42.1112	
258	2.15	-164.474	107.691	56.4333	-139.362	106.204	46.0155	-111.364	118.706	40.3195	-93.8956	122.336	37.7079	-136.132	135.655	-18.9602	-136.404	105.114	-29.0067	-151.424	95.6744	0.982449	-159.165	132.802	-35.4214	-151.063	96.252	-32.7083	-170.639	92.6512	1.81011	-176.009	121.659	-40.2381	-168.706	89.1921	-32.8127	-184.782	88.4012	-0.135307	-197.059	115.789	-41.006	-188.295	88.0361	-30.6887	-193.623	91.3921	-2.28284	-212.149	140.542	10.2183	-224.416	127.11	40.4075	-190.372	135.18	41.2485	
259	2.15833	-165.197	116.102	55.217	-139.392	119.032	47.108	-117.441	134.618	39.0236	-97.271	138.175	42.2263	-141.958	140.304	-22.1311	-131.75	109.726	-28.5822	-147.894	98.7621	2.43168	-161.156	132.98	-37.3014	-151.267	99.6928	-36.4542	-167.084	94.4041	3.77493	-179.716	117.852	-43.1747	-169.66	89.3112	-34.6388	-181.36	89.8932	0.620829	-201.099	113.461	-40.0832	-188.401	85.1992	-32.0122	-193.276	92.993	0.658315	-219.612	137.699	6.96262	-229.429	123.573	37.4565	-192.661	140.221	40.5668	
260	2.16667	-169.892	121.646	53.2398	-143.599	129.379	46.8014	-124.46	145.062	39.8894	-106.289	151.981	40.0882	-144.651	141.541	-26.2289	-137.635	112.664	-30.7859	-148.44	102.23	3.10563	-163.394	133.183	-38.2818	-149.817	100.801	-35.8249	-166.022	95.5257	3.49024	-179.758	119.078	-41.3295	-165.796	89.2118	-32.954	-181.073	88.9581	-1.44429	-197.771	103.765	-43.8905	-183.928	84.1816	-31.5976	-193.494	92.1465	3.1599	-222.221	132.958	2.68296	-233.6	120.997	33.9318	-201.217	138.559	34.7351	
261	2.175	-174.251	125.651	54.0188	-147.838	137.443	44.0438	-130.602	157.61	33.8457	-113.935	168.37	36.689	-144.954	145.149	-26.2522	-133.81	113.852	-27.4923	-152.914	106.097	2.42721	-165.128	132.059	-42.1617	-151.734	99.567	-35.1247	-166.847	96.0763	-1.17321	-183.083	114.778	-44.2854	-167.605	84.8477	-31.0242	-179.95	90.0691	0.153351	-199.899	102.068	-42.5476	-183.202	81.1818	-29.1345	-193.578	91.0602	1.86915	-221.645	131.298	-2.57972	-236.487	119.868	28.8549	-201.783	143.088	34.5541	
262	2.18333	-176.678	131.61	51.4606	-154.658	145.048	37.0399	-139.49	162.64	32.0836	-122.217	183.048	30.8288	-151.792	144.358	-32.3502	-134.622	116.381	-27.1746	-154.25	110.088	4.05918	-169.341	130.979	-42.7543	-148.562	102.367	-34.7875	-167.89	99.4536	0.98361	-181.713	109.961	-45.7738	-164.821	85.5709	-27.8818	-177.785	91.9924	0.724738	-197.754	93.7607	-44.33	-180.386	77.0974	-23.496	-189.098	87.0895	3.84148	-223.717	128.56	0.00877304	-238.655	115.122	31.8213	-208.098	139.97	29.3153	
263	2.19167	-176.569	137.603	51.3212	-156.831	153.553	36.3713	-145.028	173.536	26.8408	-133.084	189.154	24.2107	-152.11	146.297	-32.7806	-135.563	117.841	-27.8667	-149.457	114.448	3.23511	-170.098	129.071	-44.9132	-147.775	101.68	-33.3996	-167.217	103.944	3.70388	-179.195	109.907	-44.8977	-162.083	86.3263	-29.1886	-176.065	94.5469	1.8632	-195.803	91.7322	-40.6616	-175.646	79.3844	-21.4348	-189.258	88.5089	6.26048	-225.262	121.532	-4.81127	-236.879	111.581	30.6158	-207.141	143.806	24.9197	
264	2.2	-181.12	138.573	46.9109	-161.456	152.498	34.141	-151.742	179.882	21.4464	-141.408	193.71	21.634	-157.327	144.944	-37.0482	-135.124	124.156	-30.972	-149.944	117.789	1.96335	-169.063	123.973	-49.226	-145.148	106.129	-33.2194	-162.305	107.848	2.13318	-180.371	105.22	-45.3901	-156.79	89.9336	-25.1193	-174.25	97.1332	1.76213	-190.439	85.5375	-40.819	-170.718	77.7014	-22.8728	-183.821	88.876	3.20051	-223.285	119.622	-4.48545	-235.095	110.328	27.5505	-213.328	141.656	24.6117	
265	2.20833	-183.239	145.862	41.1407	-166.577	156.282	28.1863	-159.99	181.332	19.702	-152.714	198.385	14.8255	-162.94	146.001	-38.043	-136.164	124.227	-28.6192	-151.386	122.495	0.307847	-171.239	125.519	-48.6421	-145.851	105.643	-36.3454	-162.816	109.343	0.861605	-174.803	103.436	-45.662	-155.42	87.8401	-23.9588	-172.556	96.8202	1.21809	-188.877	83.2623	-39.8448	-167.113	78.7217	-17.9568	-184.9	89.5315	5.02338	-226.678	113.767	-5.29149	-236.367	107.966	25.5127	-215.067	142.412	21.0854	
266	2.21667	-186.195	147.15	38.5344	-172.03	159.841	22.4178	-167.61	182.975	12.7793	-162.343	201.674	8.44441	-165.088	144.347	-41.6419	-136.44	127.867	-33.8995	-149.633	126.676	-0.542327	-172.373	120.076	-51.4711	-143.471	107.086	-34.9684	-163.947	112.203	1.9539	-175.105	101.124	-46.2756	-152.183	89.7817	-24.4292	-176.153	97.7642	3.38522	-183.049	80.7265	-39.0681	-162.316	77.5476	-17.1327	-181.823	91.2022	4.89431	-225.44	111.026	-8.94314	-234.977	100.905	26.5621	-217.183	138.492	19.2752	
267	2.225	-188.174	148.062	37.2076	-175.757	164.768	20.7636	-172.585	182.189	7.26962	-170.063	204.725	4.98887	-165.933	144.736	-44.2663	-136.35	128.639	-31.69	-155.118	129.518	0.0626768	-167.868	118.892	-52.6566	-142.183	108.841	-35.9091	-160.404	114.9	0.967605	-175.018	95.4232	-46.1362	-148.816	91.7469	-21.421	-169.995	97.4577	2.42642	-181.571	79.809	-37.8195	-159.232	79.5505	-18.2066	-178.157	90.6649	5.7668	-225.414	102.412	-9.1228	-233.3	97.5715	28.0494	-218.122	134.253	17.022	
